<?xml version="1.0" encoding="UTF-8"?>
<svg width="700pt" height="700pt" version="1.1" viewBox="0 0 700 700" xmlns="http://www.w3.org/2000/svg">
 <g>
  <path d="m466.67 315c0-12.887 10.445-23.332 23.332-23.332s23.332 10.445 23.332 23.332v131.25c0 37.051-30.031 67.082-67.082 67.082h-262.5c-37.051 0-67.082-30.031-67.082-67.082v-262.5c0-37.051 30.031-67.082 67.082-67.082h142.19c12.887 0 23.332 10.445 23.332 23.332s-10.445 23.332-23.332 23.332h-142.19c-11.277 0-20.418 9.1406-20.418 20.418v262.5c0 11.277 9.1406 20.418 20.418 20.418h262.5c11.277 0 20.418-9.1406 20.418-20.418z"/>
  <path d="m492.48 103.87-174.48 175.11-8.2539 41.27 41.223-8.2422 174.52-175.14zm16.473-49.527 65.996 65.996c9.1016 9.1016 9.1133 23.852 0.027344 32.969l-195.96 196.66c-3.2617 3.2734-7.4219 5.5078-11.953 6.4141l-82.496 16.496c-16.324 3.2656-30.719-11.129-27.453-27.453l16.496-82.496c0.90234-4.5039 3.1133-8.6406 6.3516-11.895l195.96-196.66c9.1094-9.1406 23.906-9.1523 33.031-0.027344z"/>
  <path d="m415.17 144.83 32.996-32.996 70 70-32.996 32.996z"/>
 </g>
</svg>
